<?xml version="1.0" standalone="no"?>
<!DOCTYPE svg PUBLIC "-//W3C//DTD SVG 20010904//EN"
 "http://www.w3.org/TR/2001/REC-SVG-20010904/DTD/svg10.dtd">
<svg version="1.0" xmlns="http://www.w3.org/2000/svg"
 width="512.000000pt" height="512.000000pt" viewBox="0 0 512.000000 512.000000"
 preserveAspectRatio="xMidYMid meet">
<metadata>
Created by potrace 1.14, written by Peter Selinger 2001-2017
</metadata>
<g transform="translate(0.000000,512.000000) scale(0.100000,-0.100000)"
fill="#000000" stroke="none">
<path d="M875 5113 c-217 -27 -429 -134 -588 -296 -123 -125 -205 -268 -255
-447 l-27 -95 -2 -1685 c-2 -1795 -3 -1751 45 -1895 72 -210 191 -375 366
-504 94 -70 266 -148 362 -165 16 -3 52 -10 79 -15 31 -6 674 -10 1705 -10
1575 -1 1659 0 1745 18 218 45 372 128 525 281 36 36 73 76 83 90 89 128 142
235 169 339 38 147 37 108 35 1861 l-2 1695 -31 100 c-17 55 -47 131 -65 169
-48 97 -53 106 -61 106 -5 0 -8 5 -8 11 0 24 -140 179 -216 239 -113 90 -259
156 -424 191 -80 17 -176 18 -1745 17 -913 -1 -1673 -3 -1690 -5z"/>
</g>
</svg>
